packet|codec_type=audio|stream_index=0|pts=-2048|pts_time=-0.046440|dts=-2048|dts_time=-0.046440|duration=1024|duration_time=0.023220|convergence_duration=N/A|convergence_duration_time=N/A|size=258|pos=36|flags=KDside_data|side_data_type=Skip Samples|skip_samples=2048|discard_padding=0|skip_reason=0|discard_reason=0

packet|codec_type=audio|stream_index=0|pts=-1024|pts_time=-0.023220|dts=-1024|dts_time=-0.023220|duration=1024|duration_time=0.023220|convergence_duration=N/A|convergence_duration_time=N/A|size=258|pos=294|flags=KD
packet|codec_type=audio|stream_index=0|pts=0|pts_time=0.000000|dts=0|dts_time=0.000000|duration=1024|duration_time=0.023220|convergence_duration=N/A|convergence_duration_time=N/A|size=146|pos=552|flags=K_
packet|codec_type=audio|stream_index=0|pts=1024|pts_time=0.023220|dts=1024|dts_time=0.023220|duration=1024|duration_time=0.023220|convergence_duration=N/A|convergence_duration_time=N/A|size=186|pos=698|flags=K_
packet|codec_type=audio|stream_index=0|pts=2048|pts_time=0.046440|dts=2048|dts_time=0.046440|duration=1024|duration_time=0.023220|convergence_duration=N/A|convergence_duration_time=N/A|size=222|pos=884|flags=K_
packet|codec_type=audio|stream_index=0|pts=3072|pts_time=0.069660|dts=3072|dts_time=0.069660|duration=1024|duration_time=0.023220|convergence_duration=N/A|convergence_duration_time=N/A|size=186|pos=1106|flags=K_
packet|codec_type=audio|stream_index=0|pts=4096|pts_time=0.092880|dts=4096|dts_time=0.092880|duration=1024|duration_time=0.023220|convergence_duration=N/A|convergence_duration_time=N/A|size=206|pos=1292|flags=K_
packet|codec_type=audio|stream_index=0|pts=5120|pts_time=0.116100|dts=5120|dts_time=0.116100|duration=1024|duration_time=0.023220|convergence_duration=N/A|convergence_duration_time=N/A|size=199|pos=1498|flags=K_
packet|codec_type=audio|stream_index=0|pts=6144|pts_time=0.139320|dts=6144|dts_time=0.139320|duration=1024|duration_time=0.023220|convergence_duration=N/A|convergence_duration_time=N/A|size=236|pos=1697|flags=K_
packet|codec_type=audio|stream_index=0|pts=7168|pts_time=0.162540|dts=7168|dts_time=0.162540|duration=1024|duration_time=0.023220|convergence_duration=N/A|convergence_duration_time=N/A|size=208|pos=1933|flags=K_
packet|codec_type=audio|stream_index=0|pts=8192|pts_time=0.185760|dts=8192|dts_time=0.185760|duration=1024|duration_time=0.023220|convergence_duration=N/A|convergence_duration_time=N/A|size=238|pos=2141|flags=K_
packet|codec_type=audio|stream_index=0|pts=9216|pts_time=0.208980|dts=9216|dts_time=0.208980|duration=1024|duration_time=0.023220|convergence_duration=N/A|convergence_duration_time=N/A|size=222|pos=2379|flags=K_
packet|codec_type=audio|stream_index=0|pts=10240|pts_time=0.232200|dts=10240|dts_time=0.232200|duration=1024|duration_time=0.023220|convergence_duration=N/A|convergence_duration_time=N/A|size=211|pos=2601|flags=K_
packet|codec_type=audio|stream_index=0|pts=11264|pts_time=0.255420|dts=11264|dts_time=0.255420|duration=1024|duration_time=0.023220|convergence_duration=N/A|convergence_duration_time=N/A|size=153|pos=2812|flags=K_
packet|codec_type=audio|stream_index=0|pts=12288|pts_time=0.278639|dts=12288|dts_time=0.278639|duration=1024|duration_time=0.023220|convergence_duration=N/A|convergence_duration_time=N/A|size=191|pos=2965|flags=K_
packet|codec_type=audio|stream_index=0|pts=13312|pts_time=0.301859|dts=13312|dts_time=0.301859|duration=1024|duration_time=0.023220|convergence_duration=N/A|convergence_duration_time=N/A|size=208|pos=3156|flags=K_
packet|codec_type=audio|stream_index=0|pts=14336|pts_time=0.325079|dts=14336|dts_time=0.325079|duration=1024|duration_time=0.023220|convergence_duration=N/A|convergence_duration_time=N/A|size=188|pos=3364|flags=K_
packet|codec_type=audio|stream_index=0|pts=15360|pts_time=0.348299|dts=15360|dts_time=0.348299|duration=1024|duration_time=0.023220|convergence_duration=N/A|convergence_duration_time=N/A|size=170|pos=3552|flags=K_
packet|codec_type=audio|stream_index=0|pts=16384|pts_time=0.371519|dts=16384|dts_time=0.371519|duration=1024|duration_time=0.023220|convergence_duration=N/A|convergence_duration_time=N/A|size=221|pos=3722|flags=K_
packet|codec_type=audio|stream_index=0|pts=17408|pts_time=0.394739|dts=17408|dts_time=0.394739|duration=1024|duration_time=0.023220|convergence_duration=N/A|convergence_duration_time=N/A|size=247|pos=3943|flags=K_
packet|codec_type=audio|stream_index=0|pts=18432|pts_time=0.417959|dts=18432|dts_time=0.417959|duration=1024|duration_time=0.023220|convergence_duration=N/A|convergence_duration_time=N/A|size=202|pos=4190|flags=K_
packet|codec_type=audio|stream_index=0|pts=19456|pts_time=0.441179|dts=19456|dts_time=0.441179|duration=1024|duration_time=0.023220|convergence_duration=N/A|convergence_duration_time=N/A|size=186|pos=4392|flags=K_
packet|codec_type=audio|stream_index=0|pts=20480|pts_time=0.464399|dts=20480|dts_time=0.464399|duration=1024|duration_time=0.023220|convergence_duration=N/A|convergence_duration_time=N/A|size=196|pos=4578|flags=K_
packet|codec_type=audio|stream_index=0|pts=21504|pts_time=0.487619|dts=21504|dts_time=0.487619|duration=1024|duration_time=0.023220|convergence_duration=N/A|convergence_duration_time=N/A|size=200|pos=4774|flags=K_
packet|codec_type=audio|stream_index=0|pts=22528|pts_time=0.510839|dts=22528|dts_time=0.510839|duration=1024|duration_time=0.023220|convergence_duration=N/A|convergence_duration_time=N/A|size=170|pos=4974|flags=K_
packet|codec_type=audio|stream_index=0|pts=23552|pts_time=0.534059|dts=23552|dts_time=0.534059|duration=1024|duration_time=0.023220|convergence_duration=N/A|convergence_duration_time=N/A|size=172|pos=5144|flags=K_
packet|codec_type=audio|stream_index=0|pts=24576|pts_time=0.557279|dts=24576|dts_time=0.557279|duration=1024|duration_time=0.023220|convergence_duration=N/A|convergence_duration_time=N/A|size=206|pos=5316|flags=K_
packet|codec_type=audio|stream_index=0|pts=25600|pts_time=0.580499|dts=25600|dts_time=0.580499|duration=1024|duration_time=0.023220|convergence_duration=N/A|convergence_duration_time=N/A|size=208|pos=5522|flags=K_
packet|codec_type=audio|stream_index=0|pts=26624|pts_time=0.603719|dts=26624|dts_time=0.603719|duration=1024|duration_time=0.023220|convergence_duration=N/A|convergence_duration_time=N/A|size=217|pos=5730|flags=K_
packet|codec_type=audio|stream_index=0|pts=27648|pts_time=0.626939|dts=27648|dts_time=0.626939|duration=1024|duration_time=0.023220|convergence_duration=N/A|convergence_duration_time=N/A|size=252|pos=5947|flags=K_
packet|codec_type=audio|stream_index=0|pts=28672|pts_time=0.650159|dts=28672|dts_time=0.650159|duration=1024|duration_time=0.023220|convergence_duration=N/A|convergence_duration_time=N/A|size=171|pos=6199|flags=K_
packet|codec_type=audio|stream_index=0|pts=29696|pts_time=0.673379|dts=29696|dts_time=0.673379|duration=1024|duration_time=0.023220|convergence_duration=N/A|convergence_duration_time=N/A|size=206|pos=6370|flags=K_
packet|codec_type=audio|stream_index=0|pts=30720|pts_time=0.696599|dts=30720|dts_time=0.696599|duration=1024|duration_time=0.023220|convergence_duration=N/A|convergence_duration_time=N/A|size=237|pos=6576|flags=K_
packet|codec_type=audio|stream_index=0|pts=31744|pts_time=0.719819|dts=31744|dts_time=0.719819|duration=1024|duration_time=0.023220|convergence_duration=N/A|convergence_duration_time=N/A|size=210|pos=6813|flags=K_
packet|codec_type=audio|stream_index=0|pts=32768|pts_time=0.743039|dts=32768|dts_time=0.743039|duration=1024|duration_time=0.023220|convergence_duration=N/A|convergence_duration_time=N/A|size=166|pos=7023|flags=K_
packet|codec_type=audio|stream_index=0|pts=33792|pts_time=0.766259|dts=33792|dts_time=0.766259|duration=1024|duration_time=0.023220|convergence_duration=N/A|convergence_duration_time=N/A|size=166|pos=7189|flags=K_
packet|codec_type=audio|stream_index=0|pts=34816|pts_time=0.789478|dts=34816|dts_time=0.789478|duration=1024|duration_time=0.023220|convergence_duration=N/A|convergence_duration_time=N/A|size=177|pos=7355|flags=K_
packet|codec_type=audio|stream_index=0|pts=35840|pts_time=0.812698|dts=35840|dts_time=0.812698|duration=1024|duration_time=0.023220|convergence_duration=N/A|convergence_duration_time=N/A|size=188|pos=7532|flags=K_
packet|codec_type=audio|stream_index=0|pts=36864|pts_time=0.835918|dts=36864|dts_time=0.835918|duration=1024|duration_time=0.023220|convergence_duration=N/A|convergence_duration_time=N/A|size=193|pos=7720|flags=K_
packet|codec_type=audio|stream_index=0|pts=37888|pts_time=0.859138|dts=37888|dts_time=0.859138|duration=1024|duration_time=0.023220|convergence_duration=N/A|convergence_duration_time=N/A|size=195|pos=7913|flags=K_
packet|codec_type=audio|stream_index=0|pts=38912|pts_time=0.882358|dts=38912|dts_time=0.882358|duration=1024|duration_time=0.023220|convergence_duration=N/A|convergence_duration_time=N/A|size=211|pos=8108|flags=K_
packet|codec_type=audio|stream_index=0|pts=39936|pts_time=0.905578|dts=39936|dts_time=0.905578|duration=1024|duration_time=0.023220|convergence_duration=N/A|convergence_duration_time=N/A|size=249|pos=8319|flags=K_
packet|codec_type=audio|stream_index=0|pts=40960|pts_time=0.928798|dts=40960|dts_time=0.928798|duration=1024|duration_time=0.023220|convergence_duration=N/A|convergence_duration_time=N/A|size=223|pos=8568|flags=K_
packet|codec_type=audio|stream_index=0|pts=41984|pts_time=0.952018|dts=41984|dts_time=0.952018|duration=1024|duration_time=0.023220|convergence_duration=N/A|convergence_duration_time=N/A|size=230|pos=8791|flags=K_
packet|codec_type=audio|stream_index=0|pts=43008|pts_time=0.975238|dts=43008|dts_time=0.975238|duration=1024|duration_time=0.023220|convergence_duration=N/A|convergence_duration_time=N/A|size=203|pos=9021|flags=K_
packet|codec_type=audio|stream_index=0|pts=44032|pts_time=0.998458|dts=44032|dts_time=0.998458|duration=1024|duration_time=0.023220|convergence_duration=N/A|convergence_duration_time=N/A|size=180|pos=9224|flags=K_
packet|codec_type=audio|stream_index=0|pts=45056|pts_time=1.021678|dts=45056|dts_time=1.021678|duration=1024|duration_time=0.023220|convergence_duration=N/A|convergence_duration_time=N/A|size=172|pos=9404|flags=K_
packet|codec_type=audio|stream_index=0|pts=46080|pts_time=1.044898|dts=46080|dts_time=1.044898|duration=1024|duration_time=0.023220|convergence_duration=N/A|convergence_duration_time=N/A|size=240|pos=9576|flags=K_
packet|codec_type=audio|stream_index=0|pts=47104|pts_time=1.068118|dts=47104|dts_time=1.068118|duration=1024|duration_time=0.023220|convergence_duration=N/A|convergence_duration_time=N/A|size=179|pos=9816|flags=K_
packet|codec_type=audio|stream_index=0|pts=48128|pts_time=1.091338|dts=48128|dts_time=1.091338|duration=1024|duration_time=0.023220|convergence_duration=N/A|convergence_duration_time=N/A|size=191|pos=9995|flags=K_
packet|codec_type=audio|stream_index=0|pts=49152|pts_time=1.114558|dts=49152|dts_time=1.114558|duration=1024|duration_time=0.023220|convergence_duration=N/A|convergence_duration_time=N/A|size=184|pos=10186|flags=K_
packet|codec_type=audio|stream_index=0|pts=50176|pts_time=1.137778|dts=50176|dts_time=1.137778|duration=1024|duration_time=0.023220|convergence_duration=N/A|convergence_duration_time=N/A|size=214|pos=10370|flags=K_
packet|codec_type=audio|stream_index=0|pts=51200|pts_time=1.160998|dts=51200|dts_time=1.160998|duration=1024|duration_time=0.023220|convergence_duration=N/A|convergence_duration_time=N/A|size=194|pos=10584|flags=K_
packet|codec_type=audio|stream_index=0|pts=52224|pts_time=1.184218|dts=52224|dts_time=1.184218|duration=1024|duration_time=0.023220|convergence_duration=N/A|convergence_duration_time=N/A|size=235|pos=10778|flags=K_
packet|codec_type=audio|stream_index=0|pts=53248|pts_time=1.207438|dts=53248|dts_time=1.207438|duration=1024|duration_time=0.023220|convergence_duration=N/A|convergence_duration_time=N/A|size=195|pos=11013|flags=K_
packet|codec_type=audio|stream_index=0|pts=54272|pts_time=1.230658|dts=54272|dts_time=1.230658|duration=1024|duration_time=0.023220|convergence_duration=N/A|convergence_duration_time=N/A|size=220|pos=11208|flags=K_
packet|codec_type=audio|stream_index=0|pts=55296|pts_time=1.253878|dts=55296|dts_time=1.253878|duration=1024|duration_time=0.023220|convergence_duration=N/A|convergence_duration_time=N/A|size=187|pos=11428|flags=K_
packet|codec_type=audio|stream_index=0|pts=56320|pts_time=1.277098|dts=56320|dts_time=1.277098|duration=1024|duration_time=0.023220|convergence_duration=N/A|convergence_duration_time=N/A|size=238|pos=11615|flags=K_
packet|codec_type=audio|stream_index=0|pts=57344|pts_time=1.300317|dts=57344|dts_time=1.300317|duration=1024|duration_time=0.023220|convergence_duration=N/A|convergence_duration_time=N/A|size=175|pos=11853|flags=K_
packet|codec_type=audio|stream_index=0|pts=58368|pts_time=1.323537|dts=58368|dts_time=1.323537|duration=1024|duration_time=0.023220|convergence_duration=N/A|convergence_duration_time=N/A|size=178|pos=12028|flags=K_
packet|codec_type=audio|stream_index=0|pts=59392|pts_time=1.346757|dts=59392|dts_time=1.346757|duration=1024|duration_time=0.023220|convergence_duration=N/A|convergence_duration_time=N/A|size=219|pos=12206|flags=K_
packet|codec_type=audio|stream_index=0|pts=60416|pts_time=1.369977|dts=60416|dts_time=1.369977|duration=1024|duration_time=0.023220|convergence_duration=N/A|convergence_duration_time=N/A|size=179|pos=12425|flags=K_
packet|codec_type=audio|stream_index=0|pts=61440|pts_time=1.393197|dts=61440|dts_time=1.393197|duration=1024|duration_time=0.023220|convergence_duration=N/A|convergence_duration_time=N/A|size=193|pos=12604|flags=K_
packet|codec_type=audio|stream_index=0|pts=62464|pts_time=1.416417|dts=62464|dts_time=1.416417|duration=1024|duration_time=0.023220|convergence_duration=N/A|convergence_duration_time=N/A|size=200|pos=12797|flags=K_
packet|codec_type=audio|stream_index=0|pts=63488|pts_time=1.439637|dts=63488|dts_time=1.439637|duration=1024|duration_time=0.023220|convergence_duration=N/A|convergence_duration_time=N/A|size=218|pos=12997|flags=K_
packet|codec_type=audio|stream_index=0|pts=64512|pts_time=1.462857|dts=64512|dts_time=1.462857|duration=1024|duration_time=0.023220|convergence_duration=N/A|convergence_duration_time=N/A|size=215|pos=13215|flags=K_
packet|codec_type=audio|stream_index=0|pts=65536|pts_time=1.486077|dts=65536|dts_time=1.486077|duration=1024|duration_time=0.023220|convergence_duration=N/A|convergence_duration_time=N/A|size=209|pos=13430|flags=K_
packet|codec_type=audio|stream_index=0|pts=66560|pts_time=1.509297|dts=66560|dts_time=1.509297|duration=1024|duration_time=0.023220|convergence_duration=N/A|convergence_duration_time=N/A|size=171|pos=13639|flags=K_
packet|codec_type=audio|stream_index=0|pts=67584|pts_time=1.532517|dts=67584|dts_time=1.532517|duration=1024|duration_time=0.023220|convergence_duration=N/A|convergence_duration_time=N/A|size=179|pos=13810|flags=K_
packet|codec_type=audio|stream_index=0|pts=68608|pts_time=1.555737|dts=68608|dts_time=1.555737|duration=1024|duration_time=0.023220|convergence_duration=N/A|convergence_duration_time=N/A|size=185|pos=13989|flags=K_
packet|codec_type=audio|stream_index=0|pts=69632|pts_time=1.578957|dts=69632|dts_time=1.578957|duration=1024|duration_time=0.023220|convergence_duration=N/A|convergence_duration_time=N/A|size=225|pos=14174|flags=K_
packet|codec_type=audio|stream_index=0|pts=70656|pts_time=1.602177|dts=70656|dts_time=1.602177|duration=1024|duration_time=0.023220|convergence_duration=N/A|convergence_duration_time=N/A|size=221|pos=14399|flags=K_
packet|codec_type=audio|stream_index=0|pts=71680|pts_time=1.625397|dts=71680|dts_time=1.625397|duration=1024|duration_time=0.023220|convergence_duration=N/A|convergence_duration_time=N/A|size=201|pos=14620|flags=K_
packet|codec_type=audio|stream_index=0|pts=72704|pts_time=1.648617|dts=72704|dts_time=1.648617|duration=1024|duration_time=0.023220|convergence_duration=N/A|convergence_duration_time=N/A|size=206|pos=14821|flags=K_
packet|codec_type=audio|stream_index=0|pts=73728|pts_time=1.671837|dts=73728|dts_time=1.671837|duration=1024|duration_time=0.023220|convergence_duration=N/A|convergence_duration_time=N/A|size=182|pos=15027|flags=K_
packet|codec_type=audio|stream_index=0|pts=74752|pts_time=1.695057|dts=74752|dts_time=1.695057|duration=1024|duration_time=0.023220|convergence_duration=N/A|convergence_duration_time=N/A|size=176|pos=15209|flags=K_
packet|codec_type=audio|stream_index=0|pts=75776|pts_time=1.718277|dts=75776|dts_time=1.718277|duration=1024|duration_time=0.023220|convergence_duration=N/A|convergence_duration_time=N/A|size=233|pos=15385|flags=K_
packet|codec_type=audio|stream_index=0|pts=76800|pts_time=1.741497|dts=76800|dts_time=1.741497|duration=1024|duration_time=0.023220|convergence_duration=N/A|convergence_duration_time=N/A|size=199|pos=15618|flags=K_
packet|codec_type=audio|stream_index=0|pts=77824|pts_time=1.764717|dts=77824|dts_time=1.764717|duration=1024|duration_time=0.023220|convergence_duration=N/A|convergence_duration_time=N/A|size=220|pos=15817|flags=K_
packet|codec_type=audio|stream_index=0|pts=78848|pts_time=1.787937|dts=78848|dts_time=1.787937|duration=1024|duration_time=0.023220|convergence_duration=N/A|convergence_duration_time=N/A|size=190|pos=16037|flags=K_
packet|codec_type=audio|stream_index=0|pts=79872|pts_time=1.811156|dts=79872|dts_time=1.811156|duration=1024|duration_time=0.023220|convergence_duration=N/A|convergence_duration_time=N/A|size=210|pos=16227|flags=K_
packet|codec_type=audio|stream_index=0|pts=80896|pts_time=1.834376|dts=80896|dts_time=1.834376|duration=1024|duration_time=0.023220|convergence_duration=N/A|convergence_duration_time=N/A|size=204|pos=16437|flags=K_
packet|codec_type=audio|stream_index=0|pts=81920|pts_time=1.857596|dts=81920|dts_time=1.857596|duration=1024|duration_time=0.023220|convergence_duration=N/A|convergence_duration_time=N/A|size=171|pos=16641|flags=K_
packet|codec_type=audio|stream_index=0|pts=82944|pts_time=1.880816|dts=82944|dts_time=1.880816|duration=1024|duration_time=0.023220|convergence_duration=N/A|convergence_duration_time=N/A|size=167|pos=16812|flags=K_
packet|codec_type=audio|stream_index=0|pts=83968|pts_time=1.904036|dts=83968|dts_time=1.904036|duration=1024|duration_time=0.023220|convergence_duration=N/A|convergence_duration_time=N/A|size=200|pos=16979|flags=K_
packet|codec_type=audio|stream_index=0|pts=84992|pts_time=1.927256|dts=84992|dts_time=1.927256|duration=1024|duration_time=0.023220|convergence_duration=N/A|convergence_duration_time=N/A|size=254|pos=17179|flags=K_
packet|codec_type=audio|stream_index=0|pts=86016|pts_time=1.950476|dts=86016|dts_time=1.950476|duration=1024|duration_time=0.023220|convergence_duration=N/A|convergence_duration_time=N/A|size=205|pos=17433|flags=K_
packet|codec_type=audio|stream_index=0|pts=87040|pts_time=1.973696|dts=87040|dts_time=1.973696|duration=1024|duration_time=0.023220|convergence_duration=N/A|convergence_duration_time=N/A|size=196|pos=17638|flags=K_
packet|codec_type=audio|stream_index=0|pts=88064|pts_time=1.996916|dts=88064|dts_time=1.996916|duration=1024|duration_time=0.023220|convergence_duration=N/A|convergence_duration_time=N/A|size=190|pos=17834|flags=K_
packet|codec_type=audio|stream_index=0|pts=89088|pts_time=2.020136|dts=89088|dts_time=2.020136|duration=1024|duration_time=0.023220|convergence_duration=N/A|convergence_duration_time=N/A|size=197|pos=18024|flags=K_
packet|codec_type=audio|stream_index=0|pts=90112|pts_time=2.043356|dts=90112|dts_time=2.043356|duration=1024|duration_time=0.023220|convergence_duration=N/A|convergence_duration_time=N/A|size=186|pos=18221|flags=K_
packet|codec_type=audio|stream_index=0|pts=91136|pts_time=2.066576|dts=91136|dts_time=2.066576|duration=1024|duration_time=0.023220|convergence_duration=N/A|convergence_duration_time=N/A|size=194|pos=18407|flags=K_
packet|codec_type=audio|stream_index=0|pts=92160|pts_time=2.089796|dts=92160|dts_time=2.089796|duration=1024|duration_time=0.023220|convergence_duration=N/A|convergence_duration_time=N/A|size=227|pos=18601|flags=K_
packet|codec_type=audio|stream_index=0|pts=93184|pts_time=2.113016|dts=93184|dts_time=2.113016|duration=1024|duration_time=0.023220|convergence_duration=N/A|convergence_duration_time=N/A|size=195|pos=18828|flags=K_
packet|codec_type=audio|stream_index=0|pts=94208|pts_time=2.136236|dts=94208|dts_time=2.136236|duration=1024|duration_time=0.023220|convergence_duration=N/A|convergence_duration_time=N/A|size=228|pos=19023|flags=K_
packet|codec_type=audio|stream_index=0|pts=95232|pts_time=2.159456|dts=95232|dts_time=2.159456|duration=1024|duration_time=0.023220|convergence_duration=N/A|convergence_duration_time=N/A|size=196|pos=19251|flags=K_
packet|codec_type=audio|stream_index=0|pts=96256|pts_time=2.182676|dts=96256|dts_time=2.182676|duration=1024|duration_time=0.023220|convergence_duration=N/A|convergence_duration_time=N/A|size=197|pos=19447|flags=K_
packet|codec_type=audio|stream_index=0|pts=97280|pts_time=2.205896|dts=97280|dts_time=2.205896|duration=1024|duration_time=0.023220|convergence_duration=N/A|convergence_duration_time=N/A|size=186|pos=19644|flags=K_
packet|codec_type=audio|stream_index=0|pts=98304|pts_time=2.229116|dts=98304|dts_time=2.229116|duration=1024|duration_time=0.023220|convergence_duration=N/A|convergence_duration_time=N/A|size=191|pos=19830|flags=K_
packet|codec_type=audio|stream_index=0|pts=99328|pts_time=2.252336|dts=99328|dts_time=2.252336|duration=1024|duration_time=0.023220|convergence_duration=N/A|convergence_duration_time=N/A|size=215|pos=20021|flags=K_
packet|codec_type=audio|stream_index=0|pts=100352|pts_time=2.275556|dts=100352|dts_time=2.275556|duration=1024|duration_time=0.023220|convergence_duration=N/A|convergence_duration_time=N/A|size=203|pos=20236|flags=K_
packet|codec_type=audio|stream_index=0|pts=101376|pts_time=2.298776|dts=101376|dts_time=2.298776|duration=1024|duration_time=0.023220|convergence_duration=N/A|convergence_duration_time=N/A|size=205|pos=20439|flags=K_
packet|codec_type=audio|stream_index=0|pts=102400|pts_time=2.321995|dts=102400|dts_time=2.321995|duration=1024|duration_time=0.023220|convergence_duration=N/A|convergence_duration_time=N/A|size=205|pos=20644|flags=K_
packet|codec_type=audio|stream_index=0|pts=103424|pts_time=2.345215|dts=103424|dts_time=2.345215|duration=1024|duration_time=0.023220|convergence_duration=N/A|convergence_duration_time=N/A|size=213|pos=20849|flags=K_
packet|codec_type=audio|stream_index=0|pts=104448|pts_time=2.368435|dts=104448|dts_time=2.368435|duration=1024|duration_time=0.023220|convergence_duration=N/A|convergence_duration_time=N/A|size=198|pos=21062|flags=K_
packet|codec_type=audio|stream_index=0|pts=105472|pts_time=2.391655|dts=105472|dts_time=2.391655|duration=1024|duration_time=0.023220|convergence_duration=N/A|convergence_duration_time=N/A|size=178|pos=21260|flags=K_
packet|codec_type=audio|stream_index=0|pts=106496|pts_time=2.414875|dts=106496|dts_time=2.414875|duration=1024|duration_time=0.023220|convergence_duration=N/A|convergence_duration_time=N/A|size=195|pos=21438|flags=K_
packet|codec_type=audio|stream_index=0|pts=107520|pts_time=2.438095|dts=107520|dts_time=2.438095|duration=1024|duration_time=0.023220|convergence_duration=N/A|convergence_duration_time=N/A|size=227|pos=21633|flags=K_
packet|codec_type=audio|stream_index=0|pts=108544|pts_time=2.461315|dts=108544|dts_time=2.461315|duration=1024|duration_time=0.023220|convergence_duration=N/A|convergence_duration_time=N/A|size=185|pos=21860|flags=K_
packet|codec_type=audio|stream_index=0|pts=109568|pts_time=2.484535|dts=109568|dts_time=2.484535|duration=1024|duration_time=0.023220|convergence_duration=N/A|convergence_duration_time=N/A|size=206|pos=22045|flags=K_
packet|codec_type=audio|stream_index=0|pts=110592|pts_time=2.507755|dts=110592|dts_time=2.507755|duration=1024|duration_time=0.023220|convergence_duration=N/A|convergence_duration_time=N/A|size=183|pos=22251|flags=K_
packet|codec_type=audio|stream_index=0|pts=111616|pts_time=2.530975|dts=111616|dts_time=2.530975|duration=1024|duration_time=0.023220|convergence_duration=N/A|convergence_duration_time=N/A|size=208|pos=22434|flags=K_
packet|codec_type=audio|stream_index=0|pts=112640|pts_time=2.554195|dts=112640|dts_time=2.554195|duration=1024|duration_time=0.023220|convergence_duration=N/A|convergence_duration_time=N/A|size=204|pos=22642|flags=K_
packet|codec_type=audio|stream_index=0|pts=113664|pts_time=2.577415|dts=113664|dts_time=2.577415|duration=1024|duration_time=0.023220|convergence_duration=N/A|convergence_duration_time=N/A|size=192|pos=22846|flags=K_
packet|codec_type=audio|stream_index=0|pts=114688|pts_time=2.600635|dts=114688|dts_time=2.600635|duration=1024|duration_time=0.023220|convergence_duration=N/A|convergence_duration_time=N/A|size=190|pos=23038|flags=K_
packet|codec_type=audio|stream_index=0|pts=115712|pts_time=2.623855|dts=115712|dts_time=2.623855|duration=1024|duration_time=0.023220|convergence_duration=N/A|convergence_duration_time=N/A|size=199|pos=23228|flags=K_
packet|codec_type=audio|stream_index=0|pts=116736|pts_time=2.647075|dts=116736|dts_time=2.647075|duration=1024|duration_time=0.023220|convergence_duration=N/A|convergence_duration_time=N/A|size=229|pos=23427|flags=K_
packet|codec_type=audio|stream_index=0|pts=117760|pts_time=2.670295|dts=117760|dts_time=2.670295|duration=1024|duration_time=0.023220|convergence_duration=N/A|convergence_duration_time=N/A|size=208|pos=23656|flags=K_
packet|codec_type=audio|stream_index=0|pts=118784|pts_time=2.693515|dts=118784|dts_time=2.693515|duration=1024|duration_time=0.023220|convergence_duration=N/A|convergence_duration_time=N/A|size=195|pos=23864|flags=K_
packet|codec_type=audio|stream_index=0|pts=119808|pts_time=2.716735|dts=119808|dts_time=2.716735|duration=1024|duration_time=0.023220|convergence_duration=N/A|convergence_duration_time=N/A|size=190|pos=24059|flags=K_
packet|codec_type=audio|stream_index=0|pts=120832|pts_time=2.739955|dts=120832|dts_time=2.739955|duration=1024|duration_time=0.023220|convergence_duration=N/A|convergence_duration_time=N/A|size=190|pos=24249|flags=K_
packet|codec_type=audio|stream_index=0|pts=121856|pts_time=2.763175|dts=121856|dts_time=2.763175|duration=1024|duration_time=0.023220|convergence_duration=N/A|convergence_duration_time=N/A|size=192|pos=24439|flags=K_
packet|codec_type=audio|stream_index=0|pts=122880|pts_time=2.786395|dts=122880|dts_time=2.786395|duration=1024|duration_time=0.023220|convergence_duration=N/A|convergence_duration_time=N/A|size=226|pos=24631|flags=K_
packet|codec_type=audio|stream_index=0|pts=123904|pts_time=2.809615|dts=123904|dts_time=2.809615|duration=1024|duration_time=0.023220|convergence_duration=N/A|convergence_duration_time=N/A|size=195|pos=24857|flags=K_
packet|codec_type=audio|stream_index=0|pts=124928|pts_time=2.832834|dts=124928|dts_time=2.832834|duration=1024|duration_time=0.023220|convergence_duration=N/A|convergence_duration_time=N/A|size=230|pos=25052|flags=K_
packet|codec_type=audio|stream_index=0|pts=125952|pts_time=2.856054|dts=125952|dts_time=2.856054|duration=1024|duration_time=0.023220|convergence_duration=N/A|convergence_duration_time=N/A|size=198|pos=25282|flags=K_
packet|codec_type=audio|stream_index=0|pts=126976|pts_time=2.879274|dts=126976|dts_time=2.879274|duration=1024|duration_time=0.023220|convergence_duration=N/A|convergence_duration_time=N/A|size=183|pos=25480|flags=K_
packet|codec_type=audio|stream_index=0|pts=128000|pts_time=2.902494|dts=128000|dts_time=2.902494|duration=1024|duration_time=0.023220|convergence_duration=N/A|convergence_duration_time=N/A|size=199|pos=25663|flags=K_
packet|codec_type=audio|stream_index=0|pts=129024|pts_time=2.925714|dts=129024|dts_time=2.925714|duration=1024|duration_time=0.023220|convergence_duration=N/A|convergence_duration_time=N/A|size=196|pos=25862|flags=K_
packet|codec_type=audio|stream_index=0|pts=130048|pts_time=2.948934|dts=130048|dts_time=2.948934|duration=1024|duration_time=0.023220|convergence_duration=N/A|convergence_duration_time=N/A|size=186|pos=26058|flags=K_
packet|codec_type=audio|stream_index=0|pts=131072|pts_time=2.972154|dts=131072|dts_time=2.972154|duration=1024|duration_time=0.023220|convergence_duration=N/A|convergence_duration_time=N/A|size=200|pos=26244|flags=K_
packet|codec_type=audio|stream_index=0|pts=132096|pts_time=2.995374|dts=132096|dts_time=2.995374|duration=1024|duration_time=0.023220|convergence_duration=N/A|convergence_duration_time=N/A|size=210|pos=26444|flags=K_
packet|codec_type=audio|stream_index=0|pts=133120|pts_time=3.018594|dts=133120|dts_time=3.018594|duration=1024|duration_time=0.023220|convergence_duration=N/A|convergence_duration_time=N/A|size=196|pos=26654|flags=K_
packet|codec_type=audio|stream_index=0|pts=134144|pts_time=3.041814|dts=134144|dts_time=3.041814|duration=1024|duration_time=0.023220|convergence_duration=N/A|convergence_duration_time=N/A|size=214|pos=26850|flags=K_
packet|codec_type=audio|stream_index=0|pts=135168|pts_time=3.065034|dts=135168|dts_time=3.065034|duration=1024|duration_time=0.023220|convergence_duration=N/A|convergence_duration_time=N/A|size=185|pos=27064|flags=K_
packet|codec_type=audio|stream_index=0|pts=136192|pts_time=3.088254|dts=136192|dts_time=3.088254|duration=1024|duration_time=0.023220|convergence_duration=N/A|convergence_duration_time=N/A|size=198|pos=27249|flags=K_
packet|codec_type=audio|stream_index=0|pts=137216|pts_time=3.111474|dts=137216|dts_time=3.111474|duration=1024|duration_time=0.023220|convergence_duration=N/A|convergence_duration_time=N/A|size=200|pos=27447|flags=K_
packet|codec_type=audio|stream_index=0|pts=138240|pts_time=3.134694|dts=138240|dts_time=3.134694|duration=1024|duration_time=0.023220|convergence_duration=N/A|convergence_duration_time=N/A|size=208|pos=27647|flags=K_
packet|codec_type=audio|stream_index=0|pts=139264|pts_time=3.157914|dts=139264|dts_time=3.157914|duration=1024|duration_time=0.023220|convergence_duration=N/A|convergence_duration_time=N/A|size=212|pos=27855|flags=K_
packet|codec_type=audio|stream_index=0|pts=140288|pts_time=3.181134|dts=140288|dts_time=3.181134|duration=1024|duration_time=0.023220|convergence_duration=N/A|convergence_duration_time=N/A|size=208|pos=28067|flags=K_
packet|codec_type=audio|stream_index=0|pts=141312|pts_time=3.204354|dts=141312|dts_time=3.204354|duration=1024|duration_time=0.023220|convergence_duration=N/A|convergence_duration_time=N/A|size=192|pos=28275|flags=K_
packet|codec_type=audio|stream_index=0|pts=142336|pts_time=3.227574|dts=142336|dts_time=3.227574|duration=1024|duration_time=0.023220|convergence_duration=N/A|convergence_duration_time=N/A|size=192|pos=28467|flags=K_
packet|codec_type=audio|stream_index=0|pts=143360|pts_time=3.250794|dts=143360|dts_time=3.250794|duration=1024|duration_time=0.023220|convergence_duration=N/A|convergence_duration_time=N/A|size=211|pos=28659|flags=K_
packet|codec_type=audio|stream_index=0|pts=144384|pts_time=3.274014|dts=144384|dts_time=3.274014|duration=1024|duration_time=0.023220|convergence_duration=N/A|convergence_duration_time=N/A|size=195|pos=28870|flags=K_
packet|codec_type=audio|stream_index=0|pts=145408|pts_time=3.297234|dts=145408|dts_time=3.297234|duration=1024|duration_time=0.023220|convergence_duration=N/A|convergence_duration_time=N/A|size=208|pos=29065|flags=K_
packet|codec_type=audio|stream_index=0|pts=146432|pts_time=3.320454|dts=146432|dts_time=3.320454|duration=1024|duration_time=0.023220|convergence_duration=N/A|convergence_duration_time=N/A|size=195|pos=29273|flags=K_
packet|codec_type=audio|stream_index=0|pts=147456|pts_time=3.343673|dts=147456|dts_time=3.343673|duration=1024|duration_time=0.023220|convergence_duration=N/A|convergence_duration_time=N/A|size=204|pos=29468|flags=K_
packet|codec_type=audio|stream_index=0|pts=148480|pts_time=3.366893|dts=148480|dts_time=3.366893|duration=1024|duration_time=0.023220|convergence_duration=N/A|convergence_duration_time=N/A|size=209|pos=29672|flags=K_
packet|codec_type=audio|stream_index=0|pts=149504|pts_time=3.390113|dts=149504|dts_time=3.390113|duration=1024|duration_time=0.023220|convergence_duration=N/A|convergence_duration_time=N/A|size=195|pos=29881|flags=K_
packet|codec_type=audio|stream_index=0|pts=150528|pts_time=3.413333|dts=150528|dts_time=3.413333|duration=1024|duration_time=0.023220|convergence_duration=N/A|convergence_duration_time=N/A|size=191|pos=30076|flags=K_
packet|codec_type=audio|stream_index=0|pts=151552|pts_time=3.436553|dts=151552|dts_time=3.436553|duration=1024|duration_time=0.023220|convergence_duration=N/A|convergence_duration_time=N/A|size=210|pos=30267|flags=K_
packet|codec_type=audio|stream_index=0|pts=152576|pts_time=3.459773|dts=152576|dts_time=3.459773|duration=1024|duration_time=0.023220|convergence_duration=N/A|convergence_duration_time=N/A|size=209|pos=30477|flags=K_
packet|codec_type=audio|stream_index=0|pts=153600|pts_time=3.482993|dts=153600|dts_time=3.482993|duration=1024|duration_time=0.023220|convergence_duration=N/A|convergence_duration_time=N/A|size=175|pos=30686|flags=K_
packet|codec_type=audio|stream_index=0|pts=154624|pts_time=3.506213|dts=154624|dts_time=3.506213|duration=1024|duration_time=0.023220|convergence_duration=N/A|convergence_duration_time=N/A|size=244|pos=30861|flags=K_
packet|codec_type=audio|stream_index=0|pts=155648|pts_time=3.529433|dts=155648|dts_time=3.529433|duration=1024|duration_time=0.023220|convergence_duration=N/A|convergence_duration_time=N/A|size=177|pos=31105|flags=K_
packet|codec_type=audio|stream_index=0|pts=156672|pts_time=3.552653|dts=156672|dts_time=3.552653|duration=1024|duration_time=0.023220|convergence_duration=N/A|convergence_duration_time=N/A|size=217|pos=31282|flags=K_
packet|codec_type=audio|stream_index=0|pts=157696|pts_time=3.575873|dts=157696|dts_time=3.575873|duration=1024|duration_time=0.023220|convergence_duration=N/A|convergence_duration_time=N/A|size=182|pos=31499|flags=K_
packet|codec_type=audio|stream_index=0|pts=158720|pts_time=3.599093|dts=158720|dts_time=3.599093|duration=1024|duration_time=0.023220|convergence_duration=N/A|convergence_duration_time=N/A|size=181|pos=31681|flags=K_
packet|codec_type=audio|stream_index=0|pts=159744|pts_time=3.622313|dts=159744|dts_time=3.622313|duration=1024|duration_time=0.023220|convergence_duration=N/A|convergence_duration_time=N/A|size=203|pos=31862|flags=K_
packet|codec_type=audio|stream_index=0|pts=160768|pts_time=3.645533|dts=160768|dts_time=3.645533|duration=1024|duration_time=0.023220|convergence_duration=N/A|convergence_duration_time=N/A|size=198|pos=32065|flags=K_
packet|codec_type=audio|stream_index=0|pts=161792|pts_time=3.668753|dts=161792|dts_time=3.668753|duration=1024|duration_time=0.023220|convergence_duration=N/A|convergence_duration_time=N/A|size=217|pos=32263|flags=K_
packet|codec_type=audio|stream_index=0|pts=162816|pts_time=3.691973|dts=162816|dts_time=3.691973|duration=1024|duration_time=0.023220|convergence_duration=N/A|convergence_duration_time=N/A|size=195|pos=32480|flags=K_
packet|codec_type=audio|stream_index=0|pts=163840|pts_time=3.715193|dts=163840|dts_time=3.715193|duration=1024|duration_time=0.023220|convergence_duration=N/A|convergence_duration_time=N/A|size=198|pos=32675|flags=K_
packet|codec_type=audio|stream_index=0|pts=164864|pts_time=3.738413|dts=164864|dts_time=3.738413|duration=1024|duration_time=0.023220|convergence_duration=N/A|convergence_duration_time=N/A|size=202|pos=32873|flags=K_
packet|codec_type=audio|stream_index=0|pts=165888|pts_time=3.761633|dts=165888|dts_time=3.761633|duration=1024|duration_time=0.023220|convergence_duration=N/A|convergence_duration_time=N/A|size=185|pos=33075|flags=K_
packet|codec_type=audio|stream_index=0|pts=166912|pts_time=3.784853|dts=166912|dts_time=3.784853|duration=1024|duration_time=0.023220|convergence_duration=N/A|convergence_duration_time=N/A|size=196|pos=33260|flags=K_
packet|codec_type=audio|stream_index=0|pts=167936|pts_time=3.808073|dts=167936|dts_time=3.808073|duration=1024|duration_time=0.023220|convergence_duration=N/A|convergence_duration_time=N/A|size=226|pos=33456|flags=K_
packet|codec_type=audio|stream_index=0|pts=168960|pts_time=3.831293|dts=168960|dts_time=3.831293|duration=1024|duration_time=0.023220|convergence_duration=N/A|convergence_duration_time=N/A|size=187|pos=33682|flags=K_
packet|codec_type=audio|stream_index=0|pts=169984|pts_time=3.854512|dts=169984|dts_time=3.854512|duration=1024|duration_time=0.023220|convergence_duration=N/A|convergence_duration_time=N/A|size=193|pos=33869|flags=K_
packet|codec_type=audio|stream_index=0|pts=171008|pts_time=3.877732|dts=171008|dts_time=3.877732|duration=1024|duration_time=0.023220|convergence_duration=N/A|convergence_duration_time=N/A|size=218|pos=34062|flags=K_
packet|codec_type=audio|stream_index=0|pts=172032|pts_time=3.900952|dts=172032|dts_time=3.900952|duration=1024|duration_time=0.023220|convergence_duration=N/A|convergence_duration_time=N/A|size=200|pos=34280|flags=K_
packet|codec_type=audio|stream_index=0|pts=173056|pts_time=3.924172|dts=173056|dts_time=3.924172|duration=1024|duration_time=0.023220|convergence_duration=N/A|convergence_duration_time=N/A|size=200|pos=34480|flags=K_
packet|codec_type=audio|stream_index=0|pts=174080|pts_time=3.947392|dts=174080|dts_time=3.947392|duration=1024|duration_time=0.023220|convergence_duration=N/A|convergence_duration_time=N/A|size=198|pos=34680|flags=K_
packet|codec_type=audio|stream_index=0|pts=175104|pts_time=3.970612|dts=175104|dts_time=3.970612|duration=1024|duration_time=0.023220|convergence_duration=N/A|convergence_duration_time=N/A|size=200|pos=34878|flags=K_
packet|codec_type=audio|stream_index=0|pts=176128|pts_time=3.993832|dts=176128|dts_time=3.993832|duration=1024|duration_time=0.023220|convergence_duration=N/A|convergence_duration_time=N/A|size=197|pos=35078|flags=K_
packet|codec_type=audio|stream_index=0|pts=177152|pts_time=4.017052|dts=177152|dts_time=4.017052|duration=1024|duration_time=0.023220|convergence_duration=N/A|convergence_duration_time=N/A|size=209|pos=35275|flags=K_
packet|codec_type=audio|stream_index=0|pts=178176|pts_time=4.040272|dts=178176|dts_time=4.040272|duration=1024|duration_time=0.023220|convergence_duration=N/A|convergence_duration_time=N/A|size=205|pos=35484|flags=K_
packet|codec_type=audio|stream_index=0|pts=179200|pts_time=4.063492|dts=179200|dts_time=4.063492|duration=1024|duration_time=0.023220|convergence_duration=N/A|convergence_duration_time=N/A|size=199|pos=35689|flags=K_
packet|codec_type=audio|stream_index=0|pts=180224|pts_time=4.086712|dts=180224|dts_time=4.086712|duration=1024|duration_time=0.023220|convergence_duration=N/A|convergence_duration_time=N/A|size=192|pos=35888|flags=K_
packet|codec_type=audio|stream_index=0|pts=181248|pts_time=4.109932|dts=181248|dts_time=4.109932|duration=1024|duration_time=0.023220|convergence_duration=N/A|convergence_duration_time=N/A|size=201|pos=36080|flags=K_
packet|codec_type=audio|stream_index=0|pts=182272|pts_time=4.133152|dts=182272|dts_time=4.133152|duration=1024|duration_time=0.023220|convergence_duration=N/A|convergence_duration_time=N/A|size=200|pos=36281|flags=K_
packet|codec_type=audio|stream_index=0|pts=183296|pts_time=4.156372|dts=183296|dts_time=4.156372|duration=1024|duration_time=0.023220|convergence_duration=N/A|convergence_duration_time=N/A|size=202|pos=36481|flags=K_
packet|codec_type=audio|stream_index=0|pts=184320|pts_time=4.179592|dts=184320|dts_time=4.179592|duration=1024|duration_time=0.023220|convergence_duration=N/A|convergence_duration_time=N/A|size=196|pos=36683|flags=K_
packet|codec_type=audio|stream_index=0|pts=185344|pts_time=4.202812|dts=185344|dts_time=4.202812|duration=1024|duration_time=0.023220|convergence_duration=N/A|convergence_duration_time=N/A|size=200|pos=36879|flags=K_
packet|codec_type=audio|stream_index=0|pts=186368|pts_time=4.226032|dts=186368|dts_time=4.226032|duration=1024|duration_time=0.023220|convergence_duration=N/A|convergence_duration_time=N/A|size=209|pos=37079|flags=K_
packet|codec_type=audio|stream_index=0|pts=187392|pts_time=4.249252|dts=187392|dts_time=4.249252|duration=1024|duration_time=0.023220|convergence_duration=N/A|convergence_duration_time=N/A|size=201|pos=37288|flags=K_
packet|codec_type=audio|stream_index=0|pts=188416|pts_time=4.272472|dts=188416|dts_time=4.272472|duration=1024|duration_time=0.023220|convergence_duration=N/A|convergence_duration_time=N/A|size=201|pos=37489|flags=K_
packet|codec_type=audio|stream_index=0|pts=189440|pts_time=4.295692|dts=189440|dts_time=4.295692|duration=1024|duration_time=0.023220|convergence_duration=N/A|convergence_duration_time=N/A|size=201|pos=37690|flags=K_
packet|codec_type=audio|stream_index=0|pts=190464|pts_time=4.318912|dts=190464|dts_time=4.318912|duration=1024|duration_time=0.023220|convergence_duration=N/A|convergence_duration_time=N/A|size=199|pos=37891|flags=K_
packet|codec_type=audio|stream_index=0|pts=191488|pts_time=4.342132|dts=191488|dts_time=4.342132|duration=1024|duration_time=0.023220|convergence_duration=N/A|convergence_duration_time=N/A|size=198|pos=38090|flags=K_
packet|codec_type=audio|stream_index=0|pts=192512|pts_time=4.365351|dts=192512|dts_time=4.365351|duration=1024|duration_time=0.023220|convergence_duration=N/A|convergence_duration_time=N/A|size=205|pos=38288|flags=K_
packet|codec_type=audio|stream_index=0|pts=193536|pts_time=4.388571|dts=193536|dts_time=4.388571|duration=1024|duration_time=0.023220|convergence_duration=N/A|convergence_duration_time=N/A|size=190|pos=38493|flags=K_
packet|codec_type=audio|stream_index=0|pts=194560|pts_time=4.411791|dts=194560|dts_time=4.411791|duration=1024|duration_time=0.023220|convergence_duration=N/A|convergence_duration_time=N/A|size=207|pos=38683|flags=K_
packet|codec_type=audio|stream_index=0|pts=195584|pts_time=4.435011|dts=195584|dts_time=4.435011|duration=1024|duration_time=0.023220|convergence_duration=N/A|convergence_duration_time=N/A|size=204|pos=38890|flags=K_
packet|codec_type=audio|stream_index=0|pts=196608|pts_time=4.458231|dts=196608|dts_time=4.458231|duration=1024|duration_time=0.023220|convergence_duration=N/A|convergence_duration_time=N/A|size=192|pos=39094|flags=K_
packet|codec_type=audio|stream_index=0|pts=197632|pts_time=4.481451|dts=197632|dts_time=4.481451|duration=1024|duration_time=0.023220|convergence_duration=N/A|convergence_duration_time=N/A|size=211|pos=39286|flags=K_
packet|codec_type=audio|stream_index=0|pts=198656|pts_time=4.504671|dts=198656|dts_time=4.504671|duration=1024|duration_time=0.023220|convergence_duration=N/A|convergence_duration_time=N/A|size=195|pos=39497|flags=K_
packet|codec_type=audio|stream_index=0|pts=199680|pts_time=4.527891|dts=199680|dts_time=4.527891|duration=1024|duration_time=0.023220|convergence_duration=N/A|convergence_duration_time=N/A|size=214|pos=39692|flags=K_
packet|codec_type=audio|stream_index=0|pts=200704|pts_time=4.551111|dts=200704|dts_time=4.551111|duration=1024|duration_time=0.023220|convergence_duration=N/A|convergence_duration_time=N/A|size=195|pos=39906|flags=K_
packet|codec_type=audio|stream_index=0|pts=201728|pts_time=4.574331|dts=201728|dts_time=4.574331|duration=1024|duration_time=0.023220|convergence_duration=N/A|convergence_duration_time=N/A|size=199|pos=40101|flags=K_
packet|codec_type=audio|stream_index=0|pts=202752|pts_time=4.597551|dts=202752|dts_time=4.597551|duration=1024|duration_time=0.023220|convergence_duration=N/A|convergence_duration_time=N/A|size=183|pos=40300|flags=K_
packet|codec_type=audio|stream_index=0|pts=203776|pts_time=4.620771|dts=203776|dts_time=4.620771|duration=1024|duration_time=0.023220|convergence_duration=N/A|convergence_duration_time=N/A|size=211|pos=40483|flags=K_
packet|codec_type=audio|stream_index=0|pts=204800|pts_time=4.643991|dts=204800|dts_time=4.643991|duration=1024|duration_time=0.023220|convergence_duration=N/A|convergence_duration_time=N/A|size=200|pos=40694|flags=K_
packet|codec_type=audio|stream_index=0|pts=205824|pts_time=4.667211|dts=205824|dts_time=4.667211|duration=1024|duration_time=0.023220|convergence_duration=N/A|convergence_duration_time=N/A|size=199|pos=40894|flags=K_
packet|codec_type=audio|stream_index=0|pts=206848|pts_time=4.690431|dts=206848|dts_time=4.690431|duration=1024|duration_time=0.023220|convergence_duration=N/A|convergence_duration_time=N/A|size=213|pos=41093|flags=K_
packet|codec_type=audio|stream_index=0|pts=207872|pts_time=4.713651|dts=207872|dts_time=4.713651|duration=1024|duration_time=0.023220|convergence_duration=N/A|convergence_duration_time=N/A|size=191|pos=41306|flags=K_
packet|codec_type=audio|stream_index=0|pts=208896|pts_time=4.736871|dts=208896|dts_time=4.736871|duration=1024|duration_time=0.023220|convergence_duration=N/A|convergence_duration_time=N/A|size=211|pos=41497|flags=K_
packet|codec_type=audio|stream_index=0|pts=209920|pts_time=4.760091|dts=209920|dts_time=4.760091|duration=1024|duration_time=0.023220|convergence_duration=N/A|convergence_duration_time=N/A|size=198|pos=41708|flags=K_
packet|codec_type=audio|stream_index=0|pts=210944|pts_time=4.783311|dts=210944|dts_time=4.783311|duration=1024|duration_time=0.023220|convergence_duration=N/A|convergence_duration_time=N/A|size=203|pos=41906|flags=K_
packet|codec_type=audio|stream_index=0|pts=211968|pts_time=4.806531|dts=211968|dts_time=4.806531|duration=1024|duration_time=0.023220|convergence_duration=N/A|convergence_duration_time=N/A|size=196|pos=42109|flags=K_
packet|codec_type=audio|stream_index=0|pts=212992|pts_time=4.829751|dts=212992|dts_time=4.829751|duration=1024|duration_time=0.023220|convergence_duration=N/A|convergence_duration_time=N/A|size=197|pos=42305|flags=K_
packet|codec_type=audio|stream_index=0|pts=214016|pts_time=4.852971|dts=214016|dts_time=4.852971|duration=1024|duration_time=0.023220|convergence_duration=N/A|convergence_duration_time=N/A|size=190|pos=42502|flags=K_
packet|codec_type=audio|stream_index=0|pts=215040|pts_time=4.876190|dts=215040|dts_time=4.876190|duration=1024|duration_time=0.023220|convergence_duration=N/A|convergence_duration_time=N/A|size=208|pos=42692|flags=K_
packet|codec_type=audio|stream_index=0|pts=216064|pts_time=4.899410|dts=216064|dts_time=4.899410|duration=1024|duration_time=0.023220|convergence_duration=N/A|convergence_duration_time=N/A|size=203|pos=42900|flags=K_
packet|codec_type=audio|stream_index=0|pts=217088|pts_time=4.922630|dts=217088|dts_time=4.922630|duration=1024|duration_time=0.023220|convergence_duration=N/A|convergence_duration_time=N/A|size=198|pos=43103|flags=K_
packet|codec_type=audio|stream_index=0|pts=218112|pts_time=4.945850|dts=218112|dts_time=4.945850|duration=1024|duration_time=0.023220|convergence_duration=N/A|convergence_duration_time=N/A|size=284|pos=43301|flags=K_
packet|codec_type=audio|stream_index=0|pts=219136|pts_time=4.969070|dts=219136|dts_time=4.969070|duration=1364|duration_time=0.030930|convergence_duration=N/A|convergence_duration_time=N/A|size=5|pos=43585|flags=K_
